<?xml version="1.0" encoding="utf-8"?>
<!-- Generator: Adobe Illustrator 25.4.1, SVG Export Plug-In . SVG Version: 6.00 Build 0)  -->
<svg version="1.1" id="Layer_1" xmlns="http://www.w3.org/2000/svg" xmlns:xlink="http://www.w3.org/1999/xlink" x="0px" y="0px"
	 viewBox="0 0 109 80" style="enable-background:new 0 0 109 80;" xml:space="preserve">
<style type="text/css">
	.st0{fill:none;stroke:#FFFFFF;}
</style>
<g>
	<path class="st0" d="M71.6,32.5L55,36.4c-6-5.4-7.6-4.6-7.7-3.6l1.9,6.9c0.6,2.2,0.6,6.7,0.6,8.6c0.7,1.4,4.1-3.5,5.7-6.1L72.8,41
		c-4.1,18.3-3.5,22.6-2.7,22.5c3.5,1.7,12.4-15.8,16.4-24.8c16.2-1.8,19.4-5.5,18.9-7.1c-0.8-3.6-14.3-2.2-21-1
		c-6-6.8-18.5-20.2-20.8-18.8C60.6,11.3,67.7,25.4,71.6,32.5z"/>
	<path class="st0" d="M45.3,33c-1.9-0.7-7.5-1.4-14.7,1.4s-14.1,1-16.6-0.2"/>
	<path class="st0" d="M47.4,48c-2.2-0.8-8.6-1.6-16.9,1.3c-8.3,2.8-16.2,0.9-19.1-0.4"/>
	<path class="st0" d="M46.8,40.3c-2.1-0.7-8.2-1.5-16.1,1.4s-15.4,1-18.2-0.3"/>
</g>
</svg>
