<svg width="109" height="80" viewBox="0 0 109 80" fill="none" xmlns="http://www.w3.org/2000/svg">
<path d="M67.215 35.0467L47.641 39.6864C40.5517 33.3413 38.6425 34.2277 38.574 35.464L40.8421 43.6026C41.5019 46.1575 41.599 51.4667 41.5651 53.802C42.3896 55.4502 46.3722 49.6801 48.2604 46.589L68.6592 45.143C63.8003 66.738 64.5087 71.8616 65.4702 71.7241C69.5916 73.7839 80.0965 53.0739 84.8337 42.4614C103.955 40.315 107.704 36.001 107.189 34.1123C106.281 29.8266 90.2578 31.5054 82.3594 32.8805C75.3179 24.8114 60.5549 9.06491 57.8353 10.6314C54.2087 9.97266 62.5774 26.6338 67.215 35.0467Z" stroke="white"/>
<path d="M36.1121 35.6477C33.8704 34.8296 27.254 34.0061 18.7221 37.2568C10.1902 40.5075 2.06157 38.463 -0.936253 37.0344" stroke="white"/>
<path d="M38.6814 53.392C36.0958 52.4941 28.4837 51.5379 18.7196 54.8956C8.9556 58.2533 -0.408825 55.979 -3.87054 54.4222" stroke="white"/>
<path d="M37.946 44.2018C35.487 43.3216 28.2367 42.4159 18.9068 45.8343C9.57689 49.2527 0.664689 47.0416 -2.62517 45.5088" stroke="white"/>
</svg>
