<?xml version="1.0" encoding="utf-8"?>
<!-- Generator: Adobe Illustrator 26.0.1, SVG Export Plug-In . SVG Version: 6.00 Build 0)  -->
<svg version="1.1" id="Layer_1" xmlns="http://www.w3.org/2000/svg" xmlns:xlink="http://www.w3.org/1999/xlink" x="0px" y="0px"
	 viewBox="0 0 72 72" style="enable-background:new 0 0 72 72;" xml:space="preserve">
<style type="text/css">
	.st0{fill:none;stroke:#FFFFFF;stroke-width:0.6558;}
</style>
<g>
	<path class="st0" d="M43.4,28.4l-10.9,2.6c-3.9-3.5-5-3-5-2.4l1.2,4.5c0.4,1.4,0.4,4.4,0.4,5.6c0.5,0.9,2.7-2.3,3.7-4L44.1,34
		c-2.7,12-2.3,14.8-1.8,14.8c2.3,1.1,8.1-10.4,10.8-16.3c10.6-1.2,12.7-3.6,12.4-4.7c-0.5-2.4-9.4-1.4-13.8-0.7
		c-3.9-4.5-12.1-13.2-13.6-12.3C36.1,14.5,40.8,23.7,43.4,28.4z"/>
	<path class="st0" d="M26.1,28.7c-1.2-0.5-4.9-0.9-9.6,0.9s-9.2,0.7-10.9-0.1"/>
	<path class="st0" d="M27.5,38.5c-1.4-0.5-5.6-1-11.1,0.9C11,41.2,5.8,40,3.9,39.1"/>
	<path class="st0" d="M27.1,33.5c-1.4-0.5-5.4-1-10.6,0.9c-5.2,1.9-10.1,0.7-11.9-0.2"/>
</g>
</svg>
