<svg width="319" height="192" viewBox="0 0 319 192" fill="none" xmlns="http://www.w3.org/2000/svg">
<g id="Group 2">
<rect id="Sky" width="319" height="192" fill="#0090A4"/>
<g id="Assets">
<g id="Airplane" clip-path="url(#clip0_1_354)">
<path id="Vector" d="M34.4869 28.052L24.9951 30.2805C21.5637 27.1944 20.6506 27.6524 20.5921 28.2242L21.6807 32.1678C22.0056 33.425 22.0056 35.9978 22.0056 37.0828C22.4053 37.882 24.3517 35.0818 25.2551 33.5972L35.1465 32.9085C32.8037 43.3687 33.1449 45.8278 33.603 45.7694C35.6047 46.7439 40.6934 36.7385 42.9778 31.5961C52.2421 30.5663 54.0716 28.4515 53.7856 27.5387C53.3274 25.4792 45.6099 26.2783 41.7625 26.967C38.331 23.0688 31.1854 15.4185 29.8694 16.2209C28.1959 15.9513 32.2577 23.9946 34.4869 28.052Z" stroke="white"/>
<path id="Vector_2" d="M19.4482 28.3379C18.3629 27.9383 15.1621 27.5387 11.045 29.137C6.92789 30.7352 2.98303 29.7087 1.55325 29.0233" stroke="white"/>
<path id="Vector_3" d="M20.6505 36.9107C19.393 36.4526 15.7341 35.9978 10.9866 37.6546C6.2423 39.2528 1.72552 38.1678 0.0682831 37.4239" stroke="white"/>
<path id="Vector_4" d="M20.3061 32.5187C19.107 32.1191 15.6203 31.6611 11.1035 33.3211C6.58674 34.9811 2.29742 33.8928 0.70517 33.1489" stroke="white"/>
</g>
<g id="Cloud-1" clip-path="url(#clip1_1_354)">
<path id="Vector_5" d="M77.9889 75.4803C77.1322 75.5424 76.2717 75.4336 75.4575 75.1604C74.6434 74.8871 73.8919 74.4548 73.2468 73.8886C71.9736 74.7818 70.4733 75.2974 68.9191 75.3757C67.3648 75.454 65.8201 75.0919 64.4633 74.3311C62.2095 76.5812 59.1808 77.8883 55.9948 77.986C52.8087 78.0837 49.7053 76.9645 47.3175 74.8568C46.0561 75.5003 44.6567 75.8275 43.2403 75.81C41.8238 75.7925 40.433 75.431 39.1879 74.7566C38.1167 75.2875 36.9518 75.604 35.7588 75.6881C31.5384 75.9937 27.8619 73.4558 27.1467 69.9008C27.0923 69.6378 27.0555 69.3716 27.0364 69.1037C26.7425 65.1404 30.1717 61.6612 34.6982 61.3336C35.3963 61.2827 36.0979 61.3097 36.79 61.4143C37.8078 60.2514 39.1179 59.3805 40.5852 58.8914C42.0525 58.4023 43.6239 58.3127 45.1375 58.6319C46.3071 56.8523 47.9125 55.4003 49.8015 54.4132C51.6905 53.4261 53.8007 52.9367 55.9322 52.9913C58.0637 53.0459 60.1459 53.6427 61.9817 54.7252C63.8175 55.8077 65.3461 57.34 66.4228 59.1771C68.1406 58.7285 69.9574 58.8444 71.604 59.5077C73.2506 60.171 74.6392 61.3462 75.564 62.8592C76.0495 62.7036 76.5519 62.6068 77.0605 62.5707C78.7686 62.4589 80.4517 63.0259 81.7426 64.1481C83.0335 65.2702 83.8275 66.8563 83.9514 68.5605C84.0752 70.2647 83.5189 71.9487 82.4037 73.245C81.2885 74.5413 79.705 75.3448 77.9987 75.4803H77.9889Z" fill="white"/>
<path id="Vector_6" d="M77.9868 75.4816C77.1301 75.5438 76.2696 75.435 75.4554 75.1617C74.6413 74.8885 73.8898 74.4561 73.2447 73.89C71.9715 74.7832 70.4712 75.2987 68.917 75.377C67.3627 75.4553 65.818 75.0932 64.4612 74.3325C62.2074 76.5825 59.1787 77.8897 55.9926 77.9874C52.8066 78.0851 49.7032 76.9659 47.3154 74.8582C46.054 75.5017 44.6546 75.8288 43.2382 75.8114C41.8217 75.7939 40.4309 75.4323 39.1858 74.7579C38.1146 75.2889 36.9497 75.6054 35.7566 75.6895C31.5363 75.9951 27.8598 73.4572 27.1445 69.9022C27.1445 69.9022 33.9294 74.5917 38.9923 71.6137C38.9923 71.6137 43.2298 73.5697 47.1978 71.445C47.1978 71.445 55.5258 77.753 64.0668 71.2763C64.0668 71.2763 68.6031 74.0122 73.0292 70.8142C73.0292 70.8142 78.4962 74.7261 84 68.5574C84.0617 69.4064 83.955 70.2592 83.686 71.067C83.4171 71.8748 82.9911 72.6216 82.4325 73.2648C81.8739 73.908 81.1937 74.4349 80.4309 74.8153C79.668 75.1957 78.8374 75.4221 77.9868 75.4816Z" fill="#DFE7E7"/>
</g>
<g id="Cloud-5" clip-path="url(#clip2_1_354)">
<path id="Vector_7" d="M273.989 25.4803C273.132 25.5424 272.272 25.4336 271.458 25.1604C270.643 24.8871 269.892 24.4548 269.247 23.8886C267.974 24.7818 266.473 25.2974 264.919 25.3757C263.365 25.454 261.82 25.0919 260.463 24.3311C258.21 26.5812 255.181 27.8883 251.995 27.986C248.809 28.0837 245.705 26.9646 243.317 24.8568C242.056 25.5003 240.657 25.8275 239.24 25.81C237.824 25.7925 236.433 25.431 235.188 24.7566C234.117 25.2876 232.952 25.604 231.759 25.6881C227.538 25.9937 223.862 23.4558 223.147 19.9008C223.092 19.6379 223.055 19.3716 223.036 19.1038C222.743 15.1404 226.172 11.6612 230.698 11.3336C231.396 11.2827 232.098 11.3098 232.79 11.4143C233.808 10.2514 235.118 9.38053 236.585 8.89145C238.053 8.40236 239.624 8.31276 241.138 8.63188C242.307 6.85235 243.912 5.40029 245.802 4.41322C247.691 3.42615 249.801 2.93675 251.932 2.99134C254.064 3.04594 256.146 3.64274 257.982 4.72522C259.818 5.80771 261.346 7.34004 262.423 9.17711C264.141 8.72853 265.957 8.84446 267.604 9.50771C269.251 10.171 270.639 11.3462 271.564 12.8593C272.049 12.7036 272.552 12.6068 273.061 12.5708C274.769 12.459 276.452 13.026 277.743 14.1481C279.034 15.2702 279.828 16.8563 279.951 18.5605C280.075 20.2647 279.519 21.9487 278.404 23.245C277.289 24.5413 275.705 25.3449 273.999 25.4803H273.989Z" fill="white"/>
<path id="Vector_8" d="M273.987 25.4817C273.13 25.5438 272.27 25.435 271.455 25.1617C270.641 24.8885 269.89 24.4561 269.245 23.89C267.972 24.7832 266.471 25.2987 264.917 25.377C263.363 25.4553 261.818 25.0932 260.461 24.3325C258.207 26.5826 255.179 27.8897 251.993 27.9874C248.807 28.0851 245.703 26.9659 243.315 24.8582C242.054 25.5017 240.655 25.8288 239.238 25.8114C237.822 25.7939 236.431 25.4323 235.186 24.7579C234.115 25.2889 232.95 25.6054 231.757 25.6895C227.536 25.9951 223.86 23.4572 223.145 19.9022C223.145 19.9022 229.929 24.5917 234.992 21.6137C234.992 21.6137 239.23 23.5697 243.198 21.445C243.198 21.445 251.526 27.7531 260.067 21.2763C260.067 21.2763 264.603 24.0122 269.029 20.8142C269.029 20.8142 274.496 24.7262 280 18.5574C280.062 19.4064 279.955 20.2592 279.686 21.067C279.417 21.8748 278.991 22.6216 278.433 23.2648C277.874 23.908 277.194 24.4349 276.431 24.8153C275.668 25.1957 274.837 25.4221 273.987 25.4817Z" fill="#DFE7E7"/>
</g>
<g id="Cloud-2" clip-path="url(#clip3_1_354)">
<path id="Vector_9" d="M145 24.7454C145 28.7008 142.102 32.0622 138.072 33.2754C137.568 37.6162 133.503 40.9997 128.565 40.9997C127.232 41.0155 125.91 40.7626 124.674 40.2555C123.438 39.7485 122.314 38.9974 121.366 38.0458C119.105 39.2194 116.572 39.7459 114.039 39.5689C111.506 39.3919 109.068 38.5182 106.986 37.0412C104.922 38.4026 102.468 39.0209 100.017 38.7969C97.5658 38.573 95.2596 37.5197 93.4678 35.8059V35.8059C91.6859 34.1024 90.5137 31.8442 90.1363 29.3882C89.7588 26.9322 90.1978 24.4185 91.3839 22.2443C92.5699 20.0701 94.4353 18.3594 96.6853 17.3826C98.9352 16.4058 101.441 16.2185 103.808 16.8504C105.767 14.1899 108.582 12.3105 111.763 11.5389C114.945 10.7673 118.292 11.1521 121.223 12.6265C122.734 10.453 125.521 8.99655 128.711 8.99655C133.376 8.99655 137.179 12.1116 137.388 16.0227C140.186 16.6735 142.534 18.3448 143.853 20.5594C144.607 21.8208 145.004 23.2694 145 24.7454V24.7454Z" fill="white"/>
<path id="Vector_10" d="M145 24.7457C145 28.7011 142.102 32.0625 138.071 33.2756C137.568 37.6164 133.503 41 128.565 41C127.232 41.0158 125.91 40.7628 124.674 40.2558C123.438 39.7488 122.314 38.9977 121.365 38.0461C119.104 39.2197 116.572 39.7462 114.039 39.5692C111.505 39.3922 109.067 38.5184 106.986 37.0415C105.729 37.8704 104.319 38.4298 102.841 38.6851C101.364 38.9405 99.8509 38.8865 98.3949 38.5265C96.9388 38.1665 95.5706 37.508 94.3741 36.5915C93.1775 35.6749 92.178 34.5197 91.4367 33.1967C91.4367 33.1967 102.01 39.0697 106.675 33.0324C106.675 33.0324 113.737 37.1394 120.89 34.1223C120.89 34.1223 130.99 41.7045 136.128 31.0389C136.128 31.0389 143.464 28.224 143.42 19.9215L143.84 20.5534C144.6 21.8153 145.001 23.2663 145 24.7457V24.7457Z" fill="#DFE7E7"/>
</g>
<g id="Cloud-3" clip-path="url(#clip4_1_354)">
<path id="Vector_11" d="M155.997 83.4501C155.997 89.2756 149.48 94 141.446 94C136.36 94 131.902 92.1109 129.288 89.2487C126.602 90.6596 122.934 91.5284 118.892 91.5284C112.037 91.5284 106.28 89.0298 104.532 85.6288C104.191 84.9673 104.014 84.2358 104.014 83.4938C104.014 80.2309 107.61 77.4326 112.777 76.1665C111.802 75.0101 111.261 73.5565 111.246 72.0516C111.246 67.8121 115.633 64.3774 121.039 64.3774C121.936 64.3762 122.83 64.4733 123.704 64.6669C126.402 62.8928 129.578 61.9634 132.819 62C140.505 62 146.736 66.8793 146.736 72.9001C146.736 73.1359 146.736 73.3716 146.702 73.6039C151.658 74.9946 155.301 78.2879 155.905 82.2513C155.966 82.648 155.997 83.0487 155.997 83.4501Z" fill="white"/>
<path id="Vector_12" d="M155.997 83.4501C156.143 89.2756 149.48 94 141.446 94C136.36 94 131.902 92.1109 129.288 89.2487C126.602 90.6596 122.934 91.5284 118.892 91.5284C112.037 91.5284 104.665 88.6493 104.055 84.1741C104.055 84.1741 112.306 93.6027 129.431 85.6288C129.431 85.6288 147.942 95.2594 154.337 78.5573C154.483 78.7594 155.922 80.3993 155.997 83.4501Z" fill="#DFE7E7"/>
</g>
<g id="Cloud-6" clip-path="url(#clip5_1_354)">
<path id="Vector_13" d="M286.997 74.4501C286.997 80.2756 280.48 85 272.446 85C267.36 85 262.902 83.1109 260.288 80.2487C257.602 81.6596 253.934 82.5284 249.892 82.5284C243.037 82.5284 237.28 80.0298 235.532 76.6288C235.191 75.9673 235.014 75.2358 235.014 74.4938C235.014 71.2309 238.61 68.4326 243.777 67.1665C242.802 66.0101 242.261 64.5565 242.246 63.0516C242.246 58.8121 246.633 55.3774 252.039 55.3774C252.936 55.3762 253.83 55.4733 254.704 55.6669C257.402 53.8928 260.578 52.9634 263.819 53C271.505 53 277.736 57.8793 277.736 63.9001C277.736 64.1359 277.736 64.3716 277.702 64.6039C282.658 65.9946 286.301 69.2879 286.905 73.2513C286.966 73.648 286.997 74.0487 286.997 74.4501Z" fill="white"/>
<path id="Vector_14" d="M286.997 74.4501C287.143 80.2756 280.48 85 272.446 85C267.36 85 262.902 83.1109 260.288 80.2487C257.602 81.6596 253.934 82.5284 249.892 82.5284C243.037 82.5284 235.665 79.6493 235.055 75.1741C235.055 75.1741 243.306 84.6027 260.431 76.6288C260.431 76.6288 278.942 86.2594 285.337 69.5573C285.483 69.7594 286.922 71.3993 286.997 74.4501Z" fill="#DFE7E7"/>
</g>
<g id="Cloud-4" clip-path="url(#clip6_1_354)">
<path id="Vector_15" d="M215 46.7454C215 50.7008 212.102 54.0622 208.072 55.2754C207.568 59.6162 203.503 62.9997 198.565 62.9997C197.232 63.0155 195.91 62.7626 194.674 62.2555C193.438 61.7485 192.314 60.9974 191.366 60.0458C189.105 61.2194 186.572 61.7459 184.039 61.5689C181.506 61.3919 179.068 60.5182 176.986 59.0412C174.922 60.4026 172.468 61.0209 170.017 60.7969C167.566 60.573 165.26 59.5197 163.468 57.8059V57.8059C161.686 56.1024 160.514 53.8442 160.136 51.3882C159.759 48.9322 160.198 46.4185 161.384 44.2443C162.57 42.0701 164.435 40.3594 166.685 39.3826C168.935 38.4058 171.441 38.2185 173.808 38.8504C175.767 36.1899 178.582 34.3105 181.763 33.5389C184.945 32.7673 188.292 33.1521 191.223 34.6265C192.734 32.453 195.521 30.9966 198.711 30.9966C203.376 30.9966 207.179 34.1116 207.388 38.0227C210.186 38.6735 212.534 40.3448 213.853 42.5594C214.607 43.8208 215.004 45.2694 215 46.7454V46.7454Z" fill="white"/>
<path id="Vector_16" d="M215 46.7457C215 50.7011 212.102 54.0625 208.071 55.2756C207.568 59.6164 203.503 63 198.565 63C197.232 63.0158 195.91 62.7628 194.674 62.2558C193.438 61.7488 192.314 60.9977 191.365 60.0461C189.104 61.2197 186.572 61.7462 184.039 61.5692C181.505 61.3922 179.067 60.5184 176.986 59.0415C175.729 59.8704 174.319 60.4298 172.841 60.6851C171.364 60.9405 169.851 60.8865 168.395 60.5265C166.939 60.1665 165.571 59.508 164.374 58.5915C163.178 57.6749 162.178 56.5197 161.437 55.1967C161.437 55.1967 172.01 61.0697 176.675 55.0324C176.675 55.0324 183.737 59.1394 190.89 56.1223C190.89 56.1223 200.99 63.7045 206.128 53.0389C206.128 53.0389 213.464 50.224 213.42 41.9215L213.84 42.5534C214.6 43.8153 215.001 45.2663 215 46.7457V46.7457Z" fill="#DFE7E7"/>
</g>
<g id="Sydney Opera House" clip-path="url(#clip7_1_354)">
<g id="Sydney Opera House_2">
<g id="1">
<path id="Vector_17" d="M108.327 145.925C108.327 145.925 112.735 148.968 120.061 157.798L120.672 157.594C120.672 157.594 120.505 154.01 125.112 142.307L124.879 141.617C124.879 141.617 115.987 141.739 108.327 145.925Z" fill="white" stroke="#231F20" stroke-width="0.61" stroke-miterlimit="10"/>
<path id="Vector_18" d="M121.138 154.451C121.138 154.451 127.621 153.192 128.626 153.485C128.626 153.485 125.751 148.161 126.106 143.771C126.106 143.771 125.029 142.015 124.868 141.617L125.101 142.307C125.101 142.307 121.604 151.315 121.138 154.451Z" fill="#EEECF1" stroke="#231F20" stroke-width="0.61" stroke-miterlimit="10"/>
<path id="Vector_19" d="M120.672 157.594C120.731 156.534 120.887 155.482 121.138 154.451C121.138 154.451 127.582 153.137 128.626 153.49L131.623 156.644H123.53L120.672 157.594Z" fill="#231F20"/>
<path id="Vector_20" d="M126.106 143.771L127.732 146.632C127.732 146.632 129.309 153.314 132.006 156.638H131.623L128.626 153.485C128.626 153.485 125.773 148.051 126.106 143.771Z" fill="#E6E1DE" stroke="#231F20" stroke-width="0.61" stroke-miterlimit="10"/>
<path id="Vector_21" d="M127.732 146.632L129.808 150.221L132.028 156.638C132.028 156.638 129.436 153.606 127.732 146.632Z" fill="white" stroke="#231F20" stroke-width="0.61" stroke-miterlimit="10"/>
</g>
<g id="2">
<path id="Vector_22" d="M121.377 135.774C121.377 135.774 130.008 148.863 133.51 157.997L134.62 157.621C134.62 157.621 135.964 135.366 136.691 135.029C136.691 135.029 131.901 133.803 121.377 135.774Z" fill="white" stroke="#231F20" stroke-width="0.61" stroke-miterlimit="10"/>
<path id="Vector_23" d="M134.62 157.621C134.62 157.621 136.841 140.126 138.09 136.288L137.346 135.117L136.691 135.029C136.691 135.029 135.803 136.172 134.62 157.621Z" fill="#E6E1DE" stroke="#231F20" stroke-width="0.61" stroke-miterlimit="10"/>
<path id="Vector_24" d="M135.148 153.656C135.148 153.656 144.067 151.895 144.495 152.066C144.495 152.066 138.944 144.296 138.106 136.459H138.056C137.795 137.613 136.23 144.776 135.148 153.656Z" fill="#EEECF1" stroke="#231F20" stroke-width="0.61" stroke-miterlimit="10"/>
<path id="Vector_25" d="M134.62 157.616L138.894 156.169L144.628 156.208L147.942 156.324L144.495 152.066L135.148 153.651L134.62 157.616Z" fill="#231F20"/>
<path id="Vector_26" d="M147.176 155.379C147.176 155.379 141.459 145.582 140.571 140.165L138.09 136.299C138.09 136.299 138.6 145.477 147.176 155.379Z" fill="#E6E1DE" stroke="#231F20" stroke-width="0.61" stroke-miterlimit="10"/>
<path id="Vector_27" d="M140.571 140.165L144.234 147.024L147.192 155.379C147.192 155.379 141.109 144.958 140.571 140.165Z" fill="white" stroke="#231F20" stroke-width="0.61" stroke-miterlimit="10"/>
<path id="Vector_28" d="M147.509 156.307L148.913 156.357L144.217 147.024L147.509 156.307Z" stroke="#231F20" stroke-width="0.61" stroke-miterlimit="10"/>
</g>
<g id="3">
<path id="Vector_29" d="M145.167 148.929L149.407 156.771L150.9 156.219L161.591 135.371C161.591 135.371 149.424 122.117 128.87 125.817C128.87 125.817 136.508 133.002 145.167 148.929Z" fill="white" stroke="#231F20" stroke-width="0.61" stroke-miterlimit="10"/>
<path id="Vector_30" d="M150.895 156.219C150.895 156.219 160.808 141.142 162.734 136.719L161.585 135.371L150.895 156.219Z" fill="#E6E1DE" stroke="#231F20" stroke-width="0.61" stroke-miterlimit="10"/>
<path id="Vector_31" d="M165.792 156.925L165.093 151.9L162.74 136.713L166.264 151.458L166.719 156.964L165.792 156.925Z" fill="#4A5970" stroke="#231F20" stroke-width="0.61" stroke-miterlimit="10"/>
<path id="Vector_32" d="M150.75 156.202L155.391 149.023C155.391 149.023 164.871 151.298 165.093 151.922L165.792 156.948L150.75 156.202Z" fill="#231F20"/>
<path id="Vector_33" d="M154.047 151.558C154.047 151.558 164.666 151.442 164.915 151.955L162.74 136.719C162.74 136.719 155.602 149.658 154.047 151.558Z" fill="#EEECF1" stroke="#231F20" stroke-width="0.61" stroke-miterlimit="10"/>
</g>
<g id="4">
<path id="Vector_34" d="M162.812 137.017C162.812 137.017 173.064 148.879 174.912 152.48C174.912 152.48 169.556 151.928 166.27 151.475L162.812 137.017Z" fill="#EEECF1" stroke="#231F20" stroke-width="0.68" stroke-miterlimit="10"/>
<path id="Vector_35" d="M162.812 137.017L164.854 136.901L177.537 156.335C177.537 156.335 167.047 142.446 162.812 137.017Z" fill="#E6E1DE" stroke="#231F20" stroke-width="0.68" stroke-miterlimit="10"/>
<path id="Vector_36" d="M166.669 156.357L166.27 151.464C169.221 152.038 172.212 152.383 175.217 152.496L177.51 156.671L166.669 156.357Z" fill="#231F20"/>
<path id="Vector_37" d="M164.854 136.923C164.854 136.923 175.683 131.091 189.887 137.304L184.947 145.759C184.25 145.486 183.536 145.255 182.81 145.069C183.315 146.176 183.688 147.338 183.92 148.531L178.997 156.815L177.765 156.754L164.854 136.923Z" fill="white" stroke="#231F20" stroke-width="0.68" stroke-miterlimit="10"/>
<path id="Vector_38" d="M189.887 137.282L185.93 146.311C185.93 146.311 185.319 146.123 184.931 145.958L189.887 137.282Z" fill="#231F20"/>
<path id="Vector_39" d="M184.115 148.388C184.333 148.889 184.491 149.413 184.587 149.951L180.701 156.942L179.036 156.622L184.115 148.388Z" fill="#231F20"/>
</g>
<g id="5">
<path id="Vector_40" d="M182.627 143.903C182.627 143.903 183.227 148.984 183.343 152.369L183.598 156.942C183.969 156.071 184.419 155.236 184.942 154.446C186.328 152.334 188.157 150.546 190.304 149.205C191.653 148.456 193.071 147.837 194.539 147.355C193.567 147.106 192.385 145.726 182.627 143.903Z" fill="#EEECF1" stroke="#231F20" stroke-width="0.77" stroke-miterlimit="10"/>
<path id="Vector_41" d="M187.423 151.563L192.69 155.225C192.69 155.225 194.783 148.863 195.543 147.576L195.038 147.499L194.305 147.394C193.022 147.887 191.776 148.47 190.576 149.139C189.429 149.816 188.37 150.63 187.423 151.563Z" fill="#E6E1DE" stroke="#231F20" stroke-width="0.77" stroke-miterlimit="10"/>
<path id="Vector_42" d="M183.599 156.936L187.062 151.53L192.885 155.357L191.98 161.012L190.215 159.902L188.378 160.184L187.029 159.267L183.599 156.936Z" fill="#231F20"/>
</g>
<g id="6">
<path id="Vector_43" d="M192.69 155.225L191.885 160.819L194.106 160.267C194.106 160.267 205.096 156.296 216.402 156.02C216.402 156.02 209.464 150.691 195.566 147.576C195.543 147.576 194.244 149.211 192.69 155.225Z" fill="white" stroke="#231F20" stroke-width="0.77" stroke-miterlimit="10"/>
<path id="Vector_44" d="M194.084 160.267L211.229 172.444L214.376 171.14L205.39 161.564L206.101 159.731L216.391 156.02C216.391 156.02 203.303 155.02 194.084 160.267Z" fill="#231F20"/>
</g>
<g id="Base">
<path id="Vector_45" d="M113.734 180.418L109.06 174.984L116.981 169.268L122.121 168.396L123.02 167.744L129.636 167.943C126.518 169.688 123.548 171.682 120.755 173.907C118.26 175.906 115.914 178.082 113.734 180.418V180.418Z" fill="#C3948F" stroke="#231F20" stroke-width="0.77" stroke-miterlimit="10"/>
<path id="Vector_46" d="M110.859 173.565L108.677 170.527L109.948 169.627L118.318 169.036L116.909 169.263L110.859 173.565Z" fill="#C3948F" stroke="#231F20" stroke-width="0.77" stroke-miterlimit="10"/>
<path id="Vector_47" d="M110.932 169.467L108.712 166.402L117.138 162.569L119.852 157.842L124.004 156.439L134.55 156.489L143.015 154.236L150.752 155.815L183.589 156.92L188.368 160.162L190.083 159.941L194.524 162.58L195.04 162.68L194.002 167.501C184.129 162.106 173.034 159.312 161.771 159.386C150.507 159.459 139.449 162.397 129.649 167.921L122.894 167.645L121.989 168.291L118.248 168.953L110.932 169.467Z" fill="#C3948F" stroke="#231F20" stroke-width="0.77" stroke-miterlimit="10"/>
<path id="Vector_48" d="M195.027 162.702L217.662 180.749L215.803 186.736C213.366 183.24 210.713 180.109 205.929 175.879C202.291 172.662 198.321 169.839 194.084 167.457L195.027 162.702Z" fill="#231F20" stroke="#231F20" stroke-width="0.77" stroke-miterlimit="10"/>
<path id="Vector_49" d="M194.783 163.917L217.085 182.251L215.803 186.73L216.991 188.486L218.756 181.622L195.027 162.702L194.783 163.917Z" fill="#F8DBDC" stroke="#231F20" stroke-width="0.77" stroke-miterlimit="10"/>
<path id="Vector_50" d="M209.897 171.223L209.431 173.576L195.027 162.702L194.511 162.603L191.625 160.88L194.084 160.267L209.897 171.223Z" fill="#C3948F" stroke="#231F20" stroke-width="0.77" stroke-miterlimit="10"/>
</g>
</g>
</g>
<g id="Great Wall" clip-path="url(#clip8_1_354)">
<g id="Great Wall_2">
<g id="Left">
<g id="Left Top">
<path id="Vector_51" d="M113.72 152.446L113.989 149.318H115.012L115.018 150.712L116.241 150.757L116.31 149.205L118.145 149.159L118.162 150.638L119.585 150.695L119.597 149.222L121.769 149.256L121.718 150.797L122.992 150.882L123.084 149.222L124.547 149.318L124.25 152.736L113.72 152.446Z" fill="#C68754" stroke="black" stroke-width="0.54" stroke-miterlimit="10"/>
<path id="Vector_52" d="M124.547 149.398L126.502 149.756L126.405 151.264L127.417 151.326L127.491 150.137L128.995 150.405L128.909 151.701L129.641 151.753L129.721 150.473L131.201 150.837L131.11 152.196L131.824 152.242L131.899 151.059L133.042 151.264L132.956 152.577L133.734 152.628L133.814 151.434L135.592 151.787L135.54 155.148L124.25 152.816L124.547 149.398Z" fill="#DD9E61" stroke="black" stroke-width="0.54" stroke-miterlimit="10"/>
</g>
<g id="Left Middle Bottom">
<path id="Vector_53" d="M123.719 166.989L123.999 160.954L113.183 160.357V166.374L123.719 166.989Z" fill="#C68754" stroke="black" stroke-width="0.54" stroke-miterlimit="10"/>
<path id="Vector_54" d="M124.033 160.989L123.753 167.028L135.352 167.882L135.512 162.45L124.033 160.989Z" fill="#DD9E61" stroke="black" stroke-width="0.54" stroke-miterlimit="10"/>
</g>
<g id="Left Base">
<path id="Vector_55" d="M123.324 180.251L123.719 167.171L113.183 166.556L113.532 190.573C114.641 189.248 117.202 186.109 118.591 184.699C120.237 183.061 121.809 181.525 123.324 180.251Z" fill="#C68754" stroke="black" stroke-width="0.54" stroke-miterlimit="10"/>
<path id="Vector_56" d="M123.793 167.205L123.324 180.251C125.153 178.75 127.589 176.839 129.875 175.298C131.722 174.052 133.511 172.619 135.22 171.641C135.38 169.218 135.22 170.503 135.397 168.064L123.793 167.205Z" fill="#DD9E61" stroke="black" stroke-width="0.54" stroke-miterlimit="10"/>
</g>
<g id="Left Middle Top">
<path id="Vector_57" d="M123.981 160.841L124.239 152.862L113.703 152.577L113.166 160.244L123.981 160.841Z" fill="#C68754" stroke="black" stroke-width="0.54" stroke-miterlimit="10"/>
<path id="Vector_58" d="M124.25 152.884L123.999 160.864L135.477 162.319L135.54 155.216L124.25 152.884Z" fill="#DD9E61" stroke="black" stroke-width="0.54" stroke-miterlimit="10"/>
<path id="Vector_59" d="M114.143 157.9L115.487 157.986L115.584 156.553C115.54 156.408 115.457 156.279 115.344 156.179C115.231 156.078 115.093 156.011 114.944 155.984C114.774 155.966 114.604 156.016 114.471 156.123C114.339 156.229 114.253 156.384 114.235 156.553C114.2 156.74 114.143 157.9 114.143 157.9Z" fill="black"/>
<path id="Vector_60" d="M118.008 158.23L119.254 158.31L119.362 156.689C119.358 156.536 119.297 156.39 119.192 156.278C119.087 156.166 118.944 156.096 118.791 156.081C118.219 155.984 118.105 156.729 118.105 156.729L118.008 158.23Z" fill="black"/>
<path id="Vector_61" d="M121.952 158.213L123.175 158.293L123.267 156.928C123.267 156.774 123.208 156.627 123.101 156.515C122.995 156.404 122.849 156.338 122.695 156.331C122.084 156.228 122.032 157.013 122.032 157.013L121.952 158.213Z" fill="black"/>
<path id="Vector_62" d="M126.234 158.907L127.005 158.958L127.126 157.15C127.126 157.15 127.011 156.581 126.68 156.581C126.348 156.581 126.342 157.246 126.342 157.246L126.234 158.907Z" fill="black"/>
<path id="Vector_63" d="M129.629 159.453L130.458 159.504L130.567 157.878C130.567 157.878 130.521 157.235 130.081 157.155C129.641 157.076 129.629 159.453 129.629 159.453Z" fill="black"/>
<path id="Vector_64" d="M132.979 159.982L133.7 160.033L133.82 158.213C133.82 158.213 133.728 157.69 133.362 157.645C132.996 157.599 132.979 159.982 132.979 159.982Z" fill="black"/>
</g>
</g>
<g id="Right">
<g id="Right Base">
<path id="Vector_65" d="M201.606 172.75L204.213 174.524L204.659 163.701L201.949 163.531L201.606 172.75Z" fill="#C68754" stroke="black" stroke-width="0.54" stroke-miterlimit="10"/>
<path id="Vector_66" d="M204.213 174.524C206.108 175.74 207.94 177.052 209.701 178.454C211.581 179.95 213.245 181.434 214.703 182.845L214.846 164.645L204.659 163.73L204.213 174.524Z" fill="#DD9E61" stroke="black" stroke-width="0.54" stroke-miterlimit="10"/>
</g>
<g id="Right Middle">
<path id="Vector_67" d="M204.659 163.701L204.899 157.167L192.814 157.326L192.643 158.731L193.243 158.646L193.14 159.544L193.809 159.351L193.895 158.566L197.033 158.071L196.821 161.336L202.132 160.426L201.983 162.706L201.949 163.531L204.659 163.701Z" fill="#C68754" stroke="black" stroke-width="0.54" stroke-miterlimit="10"/>
<path id="Vector_68" d="M198.022 161.131C198.022 161.131 198.068 159.777 198.834 159.851C199.6 159.925 199.514 160.875 199.514 160.875L198.022 161.131Z" fill="black"/>
<path id="Vector_69" d="M201.675 160.505C201.675 160.505 201.749 159.902 202.166 159.936C202.289 159.94 202.407 159.979 202.509 160.047C202.61 160.116 202.689 160.211 202.738 160.323L202.612 162.211L202.041 162.177L202.155 160.471L201.675 160.505Z" fill="black"/>
<path id="Vector_70" d="M204.899 157.167L214.674 158.253L214.846 164.617L204.659 163.701L204.899 157.167Z" fill="#DD9E61" stroke="black" stroke-width="0.54" stroke-miterlimit="10"/>
<path id="Vector_71" d="M206.111 162.393L207.557 162.49L207.649 161.068C207.649 161.068 207.546 160.295 206.894 160.192C206.242 160.09 206.151 160.835 206.111 162.393Z" fill="black"/>
<path id="Vector_72" d="M209.015 162.604L210.301 162.689L210.387 161.387C210.387 161.387 210.324 160.596 209.729 160.556C209.015 160.511 209.061 161.921 209.015 162.604Z" fill="black"/>
<path id="Vector_73" d="M212.016 162.962L213.268 163.042L213.348 161.756C213.348 161.756 213.239 160.881 212.679 160.841C212.119 160.801 212.067 161.677 212.016 162.962Z" fill="black"/>
</g>
<g id="Right Top">
<path id="Vector_74" d="M192.814 157.326L192.997 154.517L194.723 154.625L194.638 155.91L195.301 155.751L195.375 154.579L198.622 154.602L198.536 155.899L199.194 155.751L199.262 154.721L202.584 154.556L202.487 155.961L203.327 155.671L203.401 154.613L205.076 154.545L204.899 157.167L192.814 157.326Z" fill="#C68754" stroke="black" stroke-width="0.54" stroke-miterlimit="10"/>
<path id="Vector_75" d="M205.076 154.545L206.528 154.733L206.442 156.041L207.054 156.081L207.134 154.812L208.849 155.034L208.775 156.189L209.289 156.223L209.369 155.028L210.695 155.188L210.615 156.382L211.09 156.524L211.176 155.222L212.833 155.438L212.753 156.632L213.142 156.655L213.216 155.506L214.703 155.631L214.674 158.253L204.899 157.167L205.076 154.545Z" fill="#DD9E61" stroke="black" stroke-width="0.54" stroke-miterlimit="10"/>
</g>
</g>
<g id="Middle">
<path id="Vector_76" d="M135.397 157.605L145.619 158.333C147.303 158.134 149.01 158.244 150.655 158.657C154.285 159.135 156.371 158.253 157.109 158.333C157.515 158.373 158.909 158.367 160.047 158.333C161.081 158.321 162.114 158.43 163.123 158.657C167.158 159.584 179.003 161.967 191.322 161.353C191.499 161.347 191.673 161.311 191.837 161.245C192.374 161.028 194.495 160.471 202.126 160.403L201.978 162.678C198.73 162.598 195.481 162.771 192.26 163.195C192.26 163.195 184.914 164.333 161.39 160.96C161.39 160.96 158.161 160.283 156.903 160.608C156.903 160.608 155.48 160.881 150.135 161.097C150.135 161.097 147.345 160.318 145.624 161.097C145.624 161.097 138.136 160.528 135.495 159.999L135.397 157.605Z" fill="#C68754" stroke="black" stroke-width="0.54" stroke-miterlimit="10"/>
<path id="Vector_77" d="M135.5 160.033L135.22 171.641C137.834 170.257 140.534 169.041 143.303 168.001C145.69 167.112 148.123 166.353 150.592 165.726C157.652 164.015 164.932 163.384 172.183 163.855C177.944 164.277 183.628 165.424 189.098 167.267C189.922 167.54 190.751 167.836 191.597 168.154C195.06 169.467 198.408 171.063 201.606 172.926L201.983 162.689C198.736 162.629 195.488 162.802 192.265 163.207C190.558 163.405 188.836 163.447 187.121 163.332C182.93 163.047 174.235 162.376 161.396 160.972C159.921 160.666 158.413 160.548 156.909 160.619C154.663 160.899 152.403 161.063 150.14 161.108C150.14 161.108 147.579 160.386 145.63 161.108C145.63 161.131 136.969 160.642 135.5 160.033Z" fill="#DD9E61" stroke="black" stroke-width="0.54" stroke-miterlimit="10"/>
<path id="Vector_78" d="M196.896 160.164L197.033 158.077L193.895 158.566L193.832 159.294L193.157 159.373L193.243 158.651L190.585 158.936L190.488 159.652L189.767 159.783L189.813 159.055L188.189 159.186V159.851L186.88 159.914L186.846 159.243L185 159.328L185.04 159.897L183.771 159.936V159.368L181.827 159.413L181.878 160.153H180.123V159.55L178.266 160.118V161.017C178.266 161.017 186.149 161.785 190.973 160.67C190.928 160.716 192.551 160.033 196.896 160.164Z" fill="#C68754" stroke="black" stroke-width="0.54" stroke-miterlimit="10"/>
<path id="Vector_79" d="M198.554 160.374C198.554 160.374 195.592 159.72 190.945 160.716C190.945 160.716 185.137 161.512 182.65 161.364C182.65 161.364 187.052 161.438 190.945 161.364C191.385 161.354 191.822 161.295 192.248 161.188C194.314 160.687 196.428 160.415 198.554 160.374V160.374Z" fill="#DDA97F" stroke="black" stroke-width="0.54" stroke-miterlimit="10"/>
</g>
</g>
</g>
<g id="Louvre" clip-path="url(#clip9_1_354)">
<g id="Louvre_2">
<path id="Front/Full" d="M125.608 179.898L164.155 123.211L200.07 179.084C195.909 176.587 191.502 174.53 186.921 172.947C179.745 170.344 172.196 168.937 164.57 168.78C160.598 168.728 156.628 168.99 152.696 169.564C140.325 171.462 129.849 177.333 125.608 179.898Z" fill="#4F8E8A" stroke="#231F20" stroke-width="0.74" stroke-miterlimit="10"/>
<path id="Sides" d="M125.608 179.904L164.161 123.211L200.07 179.084L223.438 180.741L164.149 121.307L103.538 179.904H125.608Z" fill="#83BFBF" stroke="#231F20" stroke-width="0.74" stroke-miterlimit="10"/>
<g id="Lines">
<g id="Left-Lines">
<path id="Left 1" d="M111.066 179.903L167.337 124.502" stroke="black" stroke-width="0.6" stroke-miterlimit="10"/>
<path id="Left 2" d="M117.694 179.904L169.847 127.013" stroke="black" stroke-width="0.6" stroke-miterlimit="10"/>
<path id="Left 3" d="M124.186 179.904L172.654 129.831" stroke="black" stroke-width="0.6" stroke-miterlimit="10"/>
<path id="Left 3_2" d="M133.879 175.058L175.403 132.584" stroke="black" stroke-width="0.6" stroke-miterlimit="10"/>
<path id="Left 4" d="M144.092 171.468L178.334 135.52" stroke="black" stroke-width="0.6" stroke-miterlimit="10"/>
<path id="Left 5" d="M154.773 169.287L181.44 138.638" stroke="black" stroke-width="0.6" stroke-miterlimit="10"/>
<path id="Left 6" d="M161.049 168.833L184.552 141.757" stroke="black" stroke-width="0.6" stroke-miterlimit="10"/>
<path id="Left 7" d="M167.77 168.921L187.652 144.869" stroke="black" stroke-width="0.6" stroke-miterlimit="10"/>
<path id="Left 8" d="M173.871 169.599L190.699 147.923" stroke="black" stroke-width="0.6" stroke-miterlimit="10"/>
<path id="Left 9" d="M178.819 170.554L194.133 151.242" stroke="black" stroke-width="0.6" stroke-miterlimit="10"/>
<path id="Left 10" d="M184.148 172.01L197.456 154.696" stroke="black" stroke-width="0.6" stroke-miterlimit="10"/>
<path id="Left 11" d="M189.155 173.808L200.918 158.163" stroke="black" stroke-width="0.6" stroke-miterlimit="10"/>
<path id="Left 12" d="M194.39 176.172L204.206 161.458" stroke="black" stroke-width="0.6" stroke-miterlimit="10"/>
<path id="Left 13" d="M199.052 178.742L207.727 164.989" stroke="black" stroke-width="0.6" stroke-miterlimit="10"/>
<path id="Left 14" d="M204.738 179.414L211.617 168.892" stroke="black" stroke-width="0.6" stroke-miterlimit="10"/>
<path id="Left 15" d="M210.546 179.827L215.267 172.546" stroke="black" stroke-width="0.6" stroke-miterlimit="10"/>
<path id="Left 16" d="M217.145 180.369L219.379 176.673" stroke="black" stroke-width="0.6" stroke-miterlimit="10"/>
</g>
<g id="Right-Lines">
<path id="Right 1" d="M108.323 175.282L111.066 179.904" stroke="black" stroke-width="0.6" stroke-miterlimit="10"/>
<path id="Right 2" d="M112.388 171.344L117.694 179.904" stroke="black" stroke-width="0.6" stroke-miterlimit="10"/>
<path id="Right 3" d="M116.132 167.73L124.186 179.904" stroke="black" stroke-width="0.6" stroke-miterlimit="10"/>
<path id="Right 4" d="M119.899 164.087L129.281 177.799" stroke="black" stroke-width="0.6" stroke-miterlimit="10"/>
<path id="Right 5" d="M123.596 160.515L133.879 175.058" stroke="black" stroke-width="0.6" stroke-miterlimit="10"/>
<path id="Right 6" d="M127.029 157.196L138.927 173.331" stroke="black" stroke-width="0.6" stroke-miterlimit="10"/>
<path id="Right 7" d="M130.796 153.553L144.092 171.468" stroke="black" stroke-width="0.6" stroke-miterlimit="10"/>
<path id="Right 8" d="M134.23 150.234L149.327 170.194" stroke="black" stroke-width="0.6" stroke-miterlimit="10"/>
<path id="Right 9" d="M137.365 147.204L154.773 169.286" stroke="black" stroke-width="0.6" stroke-miterlimit="10"/>
<path id="Right 10" d="M140.494 144.174L161.049 168.833" stroke="black" stroke-width="0.6" stroke-miterlimit="10"/>
<path id="Right 11" d="M143.442 141.32L167.536 168.903" stroke="black" stroke-width="0.6" stroke-miterlimit="10"/>
<path id="Right 12" d="M146.823 138.149L173.871 169.599" stroke="black" stroke-width="0.6" stroke-miterlimit="10"/>
<path id="Right 13" d="M149.777 135.201L182.569 171.533" stroke="black" stroke-width="0.6" stroke-miterlimit="10"/>
<path id="Right 14" d="M152.784 132.295L191.823 175.046" stroke="black" stroke-width="0.6" stroke-miterlimit="10"/>
<path id="Right 15" d="M155.896 129.571L201.989 179.22" stroke="black" stroke-width="0.6" stroke-miterlimit="10"/>
<path id="Right 16" d="M158.522 126.907L208.92 179.691" stroke="black" stroke-width="0.6" stroke-miterlimit="10"/>
<path id="Right 17" d="M161.242 124.154L216.027 180.304" stroke="black" stroke-width="0.6" stroke-miterlimit="10"/>
</g>
</g>
</g>
</g>
<path id="Circle" d="M229 191C227.5 171 212.4 131 164 131C115.6 131 99.8333 171 98 191" stroke="black"/>
</g>
</g>
<defs>
<clipPath id="clip0_1_354">
<rect width="54" height="30" fill="white" transform="translate(0 16)"/>
</clipPath>
<clipPath id="clip1_1_354">
<rect width="57" height="25" fill="white" transform="translate(27 53)"/>
</clipPath>
<clipPath id="clip2_1_354">
<rect width="57" height="25" fill="white" transform="translate(223 3)"/>
</clipPath>
<clipPath id="clip3_1_354">
<rect width="55" height="32" fill="white" transform="translate(90 9)"/>
</clipPath>
<clipPath id="clip4_1_354">
<rect width="52" height="32" fill="white" transform="translate(104 62)"/>
</clipPath>
<clipPath id="clip5_1_354">
<rect width="52" height="32" fill="white" transform="translate(235 53)"/>
</clipPath>
<clipPath id="clip6_1_354">
<rect width="55" height="32" fill="white" transform="translate(160 31)"/>
</clipPath>
<clipPath id="clip7_1_354">
<rect width="111" height="64" fill="white" transform="translate(108 125)"/>
</clipPath>
<clipPath id="clip8_1_354">
<rect width="102" height="42" fill="white" transform="translate(113 149)"/>
</clipPath>
<clipPath id="clip9_1_354">
<rect width="121" height="60" fill="white" transform="translate(103 121)"/>
</clipPath>
</defs>
</svg>
